# xmcd
#
# Track frame offsets: 
#        150
#        28677
#        53832
#        78599
#        85628
#        106648
#        124545
#        151080
#        176112
#        198649
#        229060
#        234144
#        264409
#        280120
#        305082
#
# Disc length: 4464 seconds
#
# Revision: 2
# Processed by: cddbd v1.5.2PL0 Copyright (c) Steve Scherf et al.
# Submitted via: ExactAudioCopy v0.99pb3
#
DISCID=b6116e0f
DTITLE=Various Artist - Inside Scandinavia, Volume 1
DYEAR=2004
DGENRE=Broken Beat
TTITLE0=Povo - Million Ways
TTITLE1=Lindberg Hemmer Foundation - Little Things (Ft. Mark Murphy)
TTITLE2=Beatfanatic - Raw!
TTITLE3=Beatfanatic - Interlude
TTITLE4=3 Foot People - Zodiac
TTITLE5=A Bossa Eletrica - Tudo Está Previsto
TTITLE6=Povo - Good and Bad (Special Jazz Mix))
TTITLE7=12th Floor - Get Down (Radio Edit)
TTITLE8=Plej - Shimmer
TTITLE9=Stockholm Cyclo - Late Night Junction
TTITLE10=Damn - Gingolds Interlude
TTITLE11=Beatfanatic - Jogando Capoeira
TTITLE12=Damn! - Superpower
TTITLE13=Jan Lundgren Trio - Close Your Eyes
TTITLE14=A Bossa Eletrica - Tombo In 7-4
EXTD=
EXTT0=
EXTT1=
EXTT2=
EXTT3=
EXTT4=
EXTT5=
EXTT6=
EXTT7=
EXTT8=
EXTT9=
EXTT10=
EXTT11=
EXTT12=
EXTT13=
EXTT14=
PLAYORDER=
